<?xml version="1.0" encoding="UTF-8" standalone="no"?>
<svg
   width="49.999996"
   height="49.999996"
   viewBox="0 0 13.229166 13.229166"
   version="1.1"
   id="svg513"
   sodipodi:docname="dark.svg"
   inkscape:version="1.0.2 (e86c870879, 2021-01-15)"
   inkscape:export-batch-path="theme\build"
   inkscape:export-batch-name=""
   xmlns:inkscape="http://www.inkscape.org/namespaces/inkscape"
   xmlns:sodipodi="http://sodipodi.sourceforge.net/DTD/sodipodi-0.dtd"
   xmlns="http://www.w3.org/2000/svg"
   xmlns:svg="http://www.w3.org/2000/svg"
   xmlns:rdf="http://www.w3.org/1999/02/22-rdf-syntax-ns#"
   xmlns:cc="http://creativecommons.org/ns#"
   xmlns:dc="http://purl.org/dc/elements/1.1/">
  <sodipodi:namedview
     pagecolor="#333333"
     bordercolor="#666666"
     borderopacity="1"
     objecttolerance="10"
     gridtolerance="10"
     guidetolerance="10"
     inkscape:pageopacity="0"
     inkscape:pageshadow="2"
     inkscape:window-width="1680"
     inkscape:window-height="972"
     id="namedview423"
     showgrid="false"
     inkscape:pagecheckerboard="true"
     inkscape:showpageshadow="false"
     inkscape:zoom="1.823598"
     inkscape:cx="146.15818"
     inkscape:cy="85.256458"
     inkscape:window-x="0"
     inkscape:window-y="0"
     inkscape:window-maximized="1"
     inkscape:current-layer="svg513"
     inkscape:document-rotation="0"
     inkscape:deskcolor="#d1d1d1">
    <inkscape:page
       x="0"
       y="0"
       width="13.229166"
       height="13.229166"
       id="page1"
       margin="0"
       bleed="0" />
  </sodipodi:namedview>
  <title
     id="title515">Sun Valley dark</title>
  <defs
     id="defs507" />
  <metadata
     id="metadata510">
    <rdf:RDF>
      <cc:Work
         rdf:about="">
        <dc:format>image/svg+xml</dc:format>
        <dc:type
           rdf:resource="http://purl.org/dc/dcmitype/StillImage" />
        <dc:title>Sun Valley dark</dc:title>
        <cc:license
           rdf:resource="http://creativecommons.org/licenses/by-nc-sa/4.0/" />
        <dc:date>2022. 07. 13.</dc:date>
        <dc:creator>
          <cc:Agent>
            <dc:title>rdbende</dc:title>
          </cc:Agent>
        </dc:creator>
      </cc:Work>
      <cc:License
         rdf:about="http://creativecommons.org/licenses/by-nc-sa/4.0/">
        <cc:permits
           rdf:resource="http://creativecommons.org/ns#Reproduction" />
        <cc:permits
           rdf:resource="http://creativecommons.org/ns#Distribution" />
        <cc:requires
           rdf:resource="http://creativecommons.org/ns#Notice" />
        <cc:requires
           rdf:resource="http://creativecommons.org/ns#Attribution" />
        <cc:prohibits
           rdf:resource="http://creativecommons.org/ns#CommercialUse" />
        <cc:permits
           rdf:resource="http://creativecommons.org/ns#DerivativeWorks" />
        <cc:requires
           rdf:resource="http://creativecommons.org/ns#ShareAlike" />
      </cc:License>
    </rdf:RDF>
  </metadata>
  <g
     id="tab-hover"
     transform="translate(-25.929169,-35.437176)">
    <rect
       style="fill:#2f2f2f;fill-opacity:1;stroke-width:0.21975;stroke-linecap:round"
       id="rect64726"
       width="8.4666662"
       height="8.4666662"
       x="17.462502"
       y="33.320507" />
    <path
       id="path15794"
       style="fill:#292929;fill-opacity:1;stroke-width:0.181948;stroke-linecap:round"
       d="m 20.108592,34.643425 c -0.99674,0 -1.80469,0.779579 -1.85001,1.76475 -0.001,0.02895 -0.002,0.05804 -0.002,0.08733 v 0.17725 h 0.002 c -0.001,0.02895 -0.002,0.05804 -0.002,0.08733 v 0.177251 3.262333 0.843876 h -0.002 a 0.79374999,0.79374999 0 0 1 -0.7922,0.743624 h 8.46718 a 0.79374999,0.79374999 0 0 1 -0.7922,-0.743624 h -0.002 v -0.824756 c 6e-5,-0.0064 5.2e-4,-0.01271 5.1e-4,-0.01912 v -3.262333 -0.177251 c 0,-0.02929 -10e-4,-0.05838 -0.003,-0.08733 h 0.003 v -0.17725 c 0,-0.02929 -10e-4,-0.05838 -0.003,-0.08733 h 5.1e-4 c -0.0453,-0.98517 -0.85273,-1.76475 -1.8495,-1.76475 z" />
  </g>
  <g
     id="tab-selected"
     transform="translate(-25.929169,-35.437176)">
    <rect
       style="fill:#2f2f2f;fill-opacity:1;stroke-width:0.21975;stroke-linecap:round"
       id="rect11944"
       width="8.4666662"
       height="8.4666662"
       x="17.462502"
       y="41.787174" />
    <path
       id="rect12032"
       style="fill:#1c1c1c;fill-opacity:1;stroke-width:0.181948;stroke-linecap:round"
       d="m 20.108799,43.109961 c -0.99674,0 -1.80469,0.779579 -1.85001,1.764751 -0.001,0.02895 -0.002,0.05804 -0.002,0.08733 v 0.17725 h 0.002 c -0.001,0.02895 -0.002,0.05804 -0.002,0.08733 v 0.17725 3.262333 0.843876 h -0.002 a 0.79374999,0.79374999 0 0 1 -0.79219,0.743624 h 8.46718 a 0.79374999,0.79374999 0 0 1 -0.7922,-0.743624 h -0.002 v -0.824756 c 6e-5,-0.0064 5.3e-4,-0.01271 5.3e-4,-0.01912 v -3.262332 -0.17725 c 0,-0.02929 -0.001,-0.05838 -0.003,-0.08733 h 0.003 v -0.17725 c 0,-0.02929 -0.001,-0.05838 -0.003,-0.08733 h 5.2e-4 c -0.0453,-0.985171 -0.85273,-1.764751 -1.8495,-1.764751 z" />
  </g>
  <g
     id="card"
     transform="translate(-25.929169,-35.437176)">
    <rect
       style="fill:#1c1c1c;fill-opacity:1;stroke-width:0.446831"
       id="rect211791"
       width="13.229166"
       height="13.229166"
       x="25.929169"
       y="35.437176" />
    <rect
       style="fill:#2f2f2f;fill-opacity:1;stroke:none;stroke-width:0;stroke-linecap:square;stroke-miterlimit:4;stroke-dasharray:none;stroke-dashoffset:396.85;stroke-opacity:0"
       id="rect212035"
       width="13.229166"
       height="13.229166"
       x="25.929169"
       y="35.437176"
       rx="1.322916"
       ry="1.322916" />
    <rect
       style="fill:#1c1c1c;fill-opacity:1;stroke:#0339a6;stroke-width:0;stroke-linecap:square;stroke-miterlimit:4;stroke-dasharray:none;stroke-dashoffset:396.85;stroke-opacity:0"
       id="rect212037"
       width="12.699999"
       height="12.699999"
       x="26.193756"
       y="35.701759"
       rx="1.0026315"
       ry="1.0026315" />
  </g>
</svg>
