<?xml version="1.0" encoding="UTF-8" standalone="no"?>
<svg
   width="10.000009"
   height="5.4156055"
   viewBox="0 0 2.6458356 1.432879"
   version="1.1"
   id="svg513"
   sodipodi:docname="dark.svg"
   inkscape:version="1.0.2 (e86c870879, 2021-01-15)"
   inkscape:export-batch-path="theme\build"
   inkscape:export-batch-name=""
   xmlns:inkscape="http://www.inkscape.org/namespaces/inkscape"
   xmlns:sodipodi="http://sodipodi.sourceforge.net/DTD/sodipodi-0.dtd"
   xmlns="http://www.w3.org/2000/svg"
   xmlns:svg="http://www.w3.org/2000/svg"
   xmlns:rdf="http://www.w3.org/1999/02/22-rdf-syntax-ns#"
   xmlns:cc="http://creativecommons.org/ns#"
   xmlns:dc="http://purl.org/dc/elements/1.1/">
  <sodipodi:namedview
     pagecolor="#333333"
     bordercolor="#666666"
     borderopacity="1"
     objecttolerance="10"
     gridtolerance="10"
     guidetolerance="10"
     inkscape:pageopacity="0"
     inkscape:pageshadow="2"
     inkscape:window-width="1680"
     inkscape:window-height="972"
     id="namedview423"
     showgrid="false"
     inkscape:pagecheckerboard="true"
     inkscape:showpageshadow="false"
     inkscape:zoom="1.823598"
     inkscape:cx="146.15818"
     inkscape:cy="85.256458"
     inkscape:window-x="0"
     inkscape:window-y="0"
     inkscape:window-maximized="1"
     inkscape:current-layer="svg513"
     inkscape:document-rotation="0"
     inkscape:deskcolor="#d1d1d1">
    <inkscape:page
       x="0"
       y="0"
       width="2.6458356"
       height="1.432879"
       id="page1"
       margin="0"
       bleed="0" />
  </sodipodi:namedview>
  <title
     id="title515">Sun Valley dark</title>
  <defs
     id="defs507" />
  <metadata
     id="metadata510">
    <rdf:RDF>
      <cc:Work
         rdf:about="">
        <dc:format>image/svg+xml</dc:format>
        <dc:type
           rdf:resource="http://purl.org/dc/dcmitype/StillImage" />
        <dc:title>Sun Valley dark</dc:title>
        <cc:license
           rdf:resource="http://creativecommons.org/licenses/by-nc-sa/4.0/" />
        <dc:date>2022. 07. 13.</dc:date>
        <dc:creator>
          <cc:Agent>
            <dc:title>rdbende</dc:title>
          </cc:Agent>
        </dc:creator>
      </cc:Work>
      <cc:License
         rdf:about="http://creativecommons.org/licenses/by-nc-sa/4.0/">
        <cc:permits
           rdf:resource="http://creativecommons.org/ns#Reproduction" />
        <cc:permits
           rdf:resource="http://creativecommons.org/ns#Distribution" />
        <cc:requires
           rdf:resource="http://creativecommons.org/ns#Notice" />
        <cc:requires
           rdf:resource="http://creativecommons.org/ns#Attribution" />
        <cc:prohibits
           rdf:resource="http://creativecommons.org/ns#CommercialUse" />
        <cc:permits
           rdf:resource="http://creativecommons.org/ns#DerivativeWorks" />
        <cc:requires
           rdf:resource="http://creativecommons.org/ns#ShareAlike" />
      </cc:License>
    </rdf:RDF>
  </metadata>
  <rect
     style="fill:none;fill-opacity:1;stroke:none;stroke-width:0.192682"
     id="empty"
     width="2.6458333"
     height="2.6458333"
     x="-2.6458316"
     y="-1.432876" />
  <path
     d="m 2.613396,0.03214942 c 0.04315,0.04297 0.04326,0.112769 2.86e-4,0.155896 L 1.408806,1.3972164 c -0.04738,0.04755 -0.124396,0.04755 -0.171787,0 L 0.03214805,0.18804542 c -0.04297,-0.04313 -0.04285,-0.112923 2.77e-4,-0.155896 0.04313,-0.04297 0.112924,-0.04285 0.155898,2.78e-4 L 1.322915,1.1710784 2.4575,0.03242742 c 0.04299,-0.04313 0.112771,-0.04325 0.155896,-2.78e-4 z"
     fill="#212121"
     id="down"
     style="fill:#9e9e9e;fill-opacity:1;stroke-width:0.220471" />
  <path
     d="m 2.613396,-0.03214758 c 0.04315,-0.04297 0.04326,-0.112769 2.86e-4,-0.155896 L 1.408806,-1.3972146 c -0.04738,-0.04755 -0.124396,-0.04755 -0.171787,0 l -1.20487095,1.20917102 c -0.04297,0.04313 -0.04285,0.112923 2.77e-4,0.155896 0.04313,0.04297 0.112924,0.04285 0.155898,-2.78e-4 L 1.322915,-1.1710766 2.4575,-0.03242558 c 0.04299,0.04313 0.112771,0.04325 0.155896,2.78e-4 z"
     fill="#212121"
     id="up"
     style="fill:#9e9e9e;fill-opacity:1;stroke-width:0.220471" />
  <path
     d="m 1.171527,3.5125744 c 0.175429,0.121285 0.415671,-0.0035 0.415671,-0.215874 v -1.600406 c 0,-0.212392 -0.240242,-0.337153 -0.415671,-0.215866 l -1.00129395,0.692277 c -0.226978,0.15693 -0.226978,0.490665 0,0.647594 z"
     fill="#212121"
     id="scrollbar-left"
     style="fill:#9e9e9e;fill-opacity:1;stroke-width:0.264583" />
  <path
     d="m 2.002877,3.5125744 c -0.175429,0.121285 -0.415679,-0.0035 -0.415679,-0.215874 v -1.600406 c 0,-0.212392 0.24025,-0.337153 0.415676,-0.215866 l 1.0013,0.692277 c 0.22696,0.15693 0.226986,0.490665 0,0.647594 z"
     fill="#212121"
     id="scrollbar-right"
     style="fill:#9e9e9e;fill-opacity:1;stroke-width:0.264583" />
</svg>
