<?xml version="1.0" encoding="UTF-8" standalone="no"?>
<svg
   width="8.0896273"
   height="5.9988866"
   viewBox="0 0 2.1403806 1.5872054"
   version="1.1"
   id="svg513"
   sodipodi:docname="dark.svg"
   inkscape:version="1.0.2 (e86c870879, 2021-01-15)"
   inkscape:export-batch-path="theme\build"
   inkscape:export-batch-name=""
   xmlns:inkscape="http://www.inkscape.org/namespaces/inkscape"
   xmlns:sodipodi="http://sodipodi.sourceforge.net/DTD/sodipodi-0.dtd"
   xmlns="http://www.w3.org/2000/svg"
   xmlns:svg="http://www.w3.org/2000/svg"
   xmlns:rdf="http://www.w3.org/1999/02/22-rdf-syntax-ns#"
   xmlns:cc="http://creativecommons.org/ns#"
   xmlns:dc="http://purl.org/dc/elements/1.1/">
  <sodipodi:namedview
     pagecolor="#333333"
     bordercolor="#666666"
     borderopacity="1"
     objecttolerance="10"
     gridtolerance="10"
     guidetolerance="10"
     inkscape:pageopacity="0"
     inkscape:pageshadow="2"
     inkscape:window-width="1680"
     inkscape:window-height="972"
     id="namedview423"
     showgrid="false"
     inkscape:pagecheckerboard="true"
     inkscape:showpageshadow="false"
     inkscape:zoom="1.823598"
     inkscape:cx="146.15818"
     inkscape:cy="85.256458"
     inkscape:window-x="0"
     inkscape:window-y="0"
     inkscape:window-maximized="1"
     inkscape:current-layer="svg513"
     inkscape:document-rotation="0"
     inkscape:deskcolor="#d1d1d1">
    <inkscape:page
       x="0"
       y="0"
       width="2.1403806"
       height="1.5872054"
       id="page1"
       margin="0"
       bleed="0" />
  </sodipodi:namedview>
  <title
     id="title515">Sun Valley dark</title>
  <defs
     id="defs507" />
  <metadata
     id="metadata510">
    <rdf:RDF>
      <cc:Work
         rdf:about="">
        <dc:format>image/svg+xml</dc:format>
        <dc:type
           rdf:resource="http://purl.org/dc/dcmitype/StillImage" />
        <dc:title>Sun Valley dark</dc:title>
        <cc:license
           rdf:resource="http://creativecommons.org/licenses/by-nc-sa/4.0/" />
        <dc:date>2022. 07. 13.</dc:date>
        <dc:creator>
          <cc:Agent>
            <dc:title>rdbende</dc:title>
          </cc:Agent>
        </dc:creator>
      </cc:Work>
      <cc:License
         rdf:about="http://creativecommons.org/licenses/by-nc-sa/4.0/">
        <cc:permits
           rdf:resource="http://creativecommons.org/ns#Reproduction" />
        <cc:permits
           rdf:resource="http://creativecommons.org/ns#Distribution" />
        <cc:requires
           rdf:resource="http://creativecommons.org/ns#Notice" />
        <cc:requires
           rdf:resource="http://creativecommons.org/ns#Attribution" />
        <cc:prohibits
           rdf:resource="http://creativecommons.org/ns#CommercialUse" />
        <cc:permits
           rdf:resource="http://creativecommons.org/ns#DerivativeWorks" />
        <cc:requires
           rdf:resource="http://creativecommons.org/ns#ShareAlike" />
      </cc:License>
    </rdf:RDF>
  </metadata>
  <path
     d="m 2.17253,1.026198 c 0.04297,0.04315 0.112769,0.04326 0.155896,2.86e-4 l 1.209171,-1.204876 c 0.04755,-0.04738 0.04755,-0.124396 0,-0.171787 L 2.328426,-1.55505 c -0.04313,-0.04297 -0.112923,-0.04285 -0.155896,2.77e-4 -0.04297,0.04313 -0.04285,0.112924 2.78e-4,0.155898 l 1.138651,1.134592 -1.138651,1.134585 c -0.04313,0.04299 -0.04325,0.112771 -2.78e-4,0.155896 z"
     fill="#212121"
     id="right"
     style="fill:#9e9e9e;fill-opacity:1;stroke-width:0.220471" />
  <path
     d="m 0.26504097,0 c -0.213701,0 -0.339235,-0.240242 -0.217196,-0.415671 l 0.69655,-1.001294 c 0.157898,-0.226978 0.49369603,-0.226978 0.65159503,0 l 0.696552,1.001294 C 2.214568,-0.240242 2.089042,0 1.875346,0 Z"
     fill="#212121"
     id="scrollbar-up"
     style="fill:#9e9e9e;fill-opacity:1;stroke-width:0.264583" />
  <path
     d="m 0.26504097,0 c -0.213701,0 -0.339235,0.240249 -0.217196,0.415679 l 0.69655,1.001297 c 0.157898,0.226986 0.49369603,0.226959 0.65159503,0 l 0.696552,-1.0013 C 2.214568,0.240249 2.089042,0 1.875346,0 Z"
     fill="#212121"
     id="scrollbar-down"
     style="fill:#9e9e9e;fill-opacity:1;stroke-width:0.264583" />
  <path
     d="M -0.64295903,3.358253 C -0.81838803,3.479538 -1.058638,3.354753 -1.058638,3.142379 V 1.541973 c 0,-0.212392 0.24024997,-0.337153 0.41567597,-0.215866 l 1.0013,0.692277 c 0.22696,0.15693 0.226986,0.490665 0,0.647594 z"
     fill="#212121"
     id="scrollbar-right"
     style="fill:#9e9e9e;fill-opacity:1;stroke-width:0.264583" />
</svg>
